PathFileType	4	(X/Y/Z)	/Users/itak/Documents/Research/Walk-IL/dataset/trc/00467_00167.trc
DataRate	CameraRate	NumFrames	NumMarkers	Units	OrigDataRate	OrigDataStartFrame	OrigNumFrames
100.000000	100.000000	4	53	mm	100.000000	456	608
Frame#	Time	RPSI			LPSI			L3			STRN			T10			C7			CLAV			RBAK			LBAK			LSHO			LUPA			LAEL			LAOL			LWTS			LWPS			LFRA			LIFD			LHPS			LHTS			RSHO			RUPA			RAEL			RAOL			RWTS			RWPS			RFRA			RIFD			RHTS			RHPS			RBHD			LFHD			RFHD			LBHD			LHIP			RHIP			RASI			LASI			LKNE			LTHI			LANK			LTIP			LTOE			LMT1			LMT5			LHEE			RKNE			RTHI			RANK			RTIP			RTOE			RMT1			RMT5			RHEE			
		X1	Y1	Z1	X2	Y2	Z2	X3	Y3	Z3	X4	Y4	Z4	X5	Y5	Z5	X6	Y6	Z6	X7	Y7	Z7	X8	Y8	Z8	X9	Y9	Z9	X10	Y10	Z10	X11	Y11	Z11	X12	Y12	Z12	X13	Y13	Z13	X14	Y14	Z14	X15	Y15	Z15	X16	Y16	Z16	X17	Y17	Z17	X18	Y18	Z18	X19	Y19	Z19	X20	Y20	Z20	X21	Y21	Z21	X22	Y22	Z22	X23	Y23	Z23	X24	Y24	Z24	X25	Y25	Z25	X26	Y26	Z26	X27	Y27	Z27	X28	Y28	Z28	X29	Y29	Z29	X30	Y30	Z30	X31	Y31	Z31	X32	Y32	Z32	X33	Y33	Z33	X34	Y34	Z34	X35	Y35	Z35	X36	Y36	Z36	X37	Y37	Z37	X38	Y38	Z38	X39	Y39	Z39	X40	Y40	Z40	X41	Y41	Z41	X42	Y42	Z42	X43	Y43	Z43	X44	Y44	Z44	X45	Y45	Z45	X46	Y46	Z46	X47	Y47	Z47	X48	Y48	Z48	X49	Y49	Z49	X50	Y50	Z50	X51	Y51	Z51	X52	Y52	Z52	X53	Y53	Z53	

457	4.56	-173.91748046875	887.8585205078125	-471.45361328125	-174.2641754150391	904.2599487304688	-329.4893188476562	-191.8060913085938	996.3147583007812	-409.2481994628906	-471.97607421875	1175.405151367188	-451.5660400390625	-188.0489959716797	1120.501831054688	-408.6430969238281	-257.8627014160156	1384.650634765625	-450.1959838867188	-439.3489074707031	1289.561279296875	-458.8926391601562	-176.8987731933594	1255.194458007812	-517.1950073242188	-240.8497161865234	1348.30078125	-340.5215148925781	-357.7646484375	1367.892333984375	-282.4077758789062	-369.8883056640625	1252.919677734375	-177.3754119873047	-417.2405700683594	1036.486083984375	-155.1197204589844	-323.4549560546875	1010.158752441406	-190.1549224853516	-528.2571411132812	889.9664306640625	-272.4290466308594	-509.4390869140625	846.7138061523438	-214.7034912109375	-462.7391662597656	959.7461547851562	-175.2793273925781	-592.499755859375	749.0366821289062	-302.7646789550781	-543.5414428710938	782.2210693359375	-235.373046875	-576.4335327148438	821.042724609375	-287.1754760742188	-293.8983764648438	1331.4580078125	-614.5717163085938	-253.4393768310547	1267.242309570312	-675.6243286132812	-199.0505828857422	985.5226440429688	-709.412109375	-159.6238250732422	978.5369873046875	-654.4013061523438	-290.4108276367188	776.9132080078125	-681.9239501953125	-196.0445098876953	762.9361572265625	-715.1993408203125	-190.6246032714844	927.1890258789062	-715.6141967773438	-227.8330841064453	601.0125122070312	-666.6314086914062	-297.4771728515625	688.8699340820312	-689.8181762695312	-194.7423706054688	676.1443481445312	-708.6477661132812	-362.5890808105469	1573.956909179688	-566.5442504882812	-503.1948547363281	1576.625854492188	-415.2437744140625	-499.0888977050781	1571.209228515625	-545.6409301757812	-352.8703308105469	1588.44580078125	-390.0677795410156	-297.3520812988281	810.075927734375	-198.6121368408203	-309.0240173339844	793.1257934570312	-604.7255249023438	-404.5999450683594	844.4690551757812	-534.1207275390625	-403.3716125488281	835.0384521484375	-276.7827758789062	-203.1287689208984	400.8003234863281	-230.0887298583984	-270.8814086914062	543.950927734375	-213.4392395019531	47.8480110168457	56.55299758911133	-198.9789123535156	-129.0583801269531	262.2586364746094	-210.4355316162109	-158.3447265625	37.25719451904297	-325.9848022460938	-79.60992431640625	47.46142959594727	-329.170654296875	-103.0618133544922	39.8416748046875	-216.4365844726562	104.1804733276367	72.19738006591797	-251.8533020019531	-498.8504638671875	449.9751281738281	-582.6136474609375	-394.5305480957031	681.9774780273438	-615.8783569335938	-619.0012817382812	43.73721694946289	-605.46875	-563.5216674804688	323.1043701171875	-596.7977905273438	-820.2921752929688	71.46288299560547	-535.6985473632812	-757.2612915039062	55.54697418212891	-503.7817687988281	-752.7577514648438	51.61711883544922	-610.12451171875	-548.9063110351562	35.84048461914062	-567.4402465820312	
458	4.57	-182.4647979736328	889.2642822265625	-473.6227111816406	-183.8789672851562	904.4803466796875	-331.4626770019531	-201.6496734619141	996.7101440429688	-411.9321594238281	-482.8361206054688	1174.8984375	-455.4076538085938	-198.0007476806641	1120.827026367188	-411.9035034179688	-268.6405944824219	1384.679565429688	-454.6651611328125	-450.2406005859375	1289.135986328125	-462.7846984863281	-187.4276580810547	1255.199096679688	-521.6195068359375	-251.2896728515625	1348.49365234375	-344.8520812988281	-368.2771301269531	1367.669555664062	-286.3827819824219	-379.3794860839844	1252.1025390625	-181.6854248046875	-425.5765380859375	1035.272216796875	-159.2721557617188	-331.7650146484375	1009.863891601562	-195.0781555175781	-534.874755859375	885.6184692382812	-274.0204162597656	-514.8220825195312	843.3676147460938	-216.0404357910156	-469.8836975097656	957.5490112304688	-178.3155059814453	-597.3289184570312	743.7957153320312	-302.2977294921875	-548.0903930664062	778.1471557617188	-235.7666473388672	-582.1266479492188	815.978515625	-287.4797058105469	-305.1463928222656	1330.628662109375	-619.0448608398438	-265.1553649902344	1265.73388671875	-679.9786987304688	-211.3581085205078	984.13818359375	-712.9244995117188	-171.8499145507812	977.3767700195312	-657.8817138671875	-299.8338623046875	774.2951049804688	-684.4884643554688	-206.8158111572266	761.7646484375	-718.54345703125	-202.6013641357422	925.8588256835938	-719.008056640625	-234.5449676513672	597.3499755859375	-669.7314453125	-306.8924560546875	686.4822998046875	-693.1460571289062	-204.9055328369141	675.0294799804688	-712.443359375	-372.9599304199219	1573.7626953125	-571.340087890625	-513.4983520507812	1577.113403320312	-419.9106750488281	-509.4486389160156	1571.335693359375	-550.3381958007812	-363.0733947753906	1588.682006835938	-394.9386596679688	-307.1206970214844	809.13818359375	-201.9617156982422	-316.8878479003906	794.5689086914062	-607.7313232421875	-413.0240478515625	845.8284912109375	-537.7660522460938	-412.8883361816406	834.0702514648438	-280.5431213378906	-210.1866607666016	400.9304504394531	-231.9583129882812	-279.0762023925781	543.6287841796875	-216.074951171875	46.18959426879883	60.46821594238281	-198.290283203125	-134.0077667236328	263.6927185058594	-211.1283569335938	-158.6028289794922	37.15653991699219	-326.0655822753906	-80.45172882080078	48.11252975463867	-328.9112854003906	-103.8496551513672	39.78136444091797	-216.4846954345703	102.2324066162109	77.80880737304688	-251.0004272460938	-509.7349548339844	451.9924621582031	-583.1549682617188	-403.2220764160156	683.4509887695312	-618.60546875	-620.2999877929688	44.34540939331055	-604.5304565429688	-572.5195922851562	323.7928161621094	-596.30810546875	-823.9707641601562	63.39075088500977	-534.053955078125	-759.581298828125	49.94288635253906	-502.5393981933594	-754.9473266601562	48.42000198364258	-609.5521240234375	-549.8765869140625	37.55572128295898	-566.9456787109375	
459	4.58	-190.6656341552734	891.5601196289062	-475.284912109375	-193.4216918945312	905.5598754882812	-332.9540405273438	-211.2449340820312	998.0153198242188	-414.2744750976562	-493.524658203125	1175.033325195312	-459.3951110839844	-207.6727905273438	1122.042724609375	-414.7953491210938	-279.4610900878906	1385.441650390625	-459.0204772949219	-461.0946655273438	1289.360229492188	-466.7453002929688	-197.8897705078125	1256.069458007812	-525.9313354492188	-261.9025268554688	1349.476806640625	-349.0403442382812	-379.0279235839844	1368.170166015625	-290.4118957519531	-389.233642578125	1252.108642578125	-186.0333557128906	-434.1167297363281	1034.873168945312	-163.5335845947266	-340.2254638671875	1010.470275878906	-200.0540618896484	-541.2438354492188	881.5923461914062	-275.3049011230469	-519.8692016601562	840.5577392578125	-216.9971618652344	-477.0180358886719	956.0626220703125	-181.2681579589844	-601.4838256835938	738.7013549804688	-301.1712036132812	-552.1090698242188	774.5121459960938	-235.60400390625	-587.361083984375	811.0982055664062	-287.2928161621094	-316.3460388183594	1330.657836914062	-623.4443969726562	-276.8408203125	1265.13720703125	-684.2927856445312	-223.7322082519531	983.6351318359375	-716.3529663085938	-184.1866149902344	977.0218505859375	-661.2572631835938	-308.9298095703125	772.0164184570312	-687.062255859375	-217.8549346923828	761.5083618164062	-721.8968505859375	-214.6967926025391	925.3981323242188	-722.3321533203125	-241.2256927490234	594.2764282226562	-673.0076904296875	-315.7387390136719	684.3200073242188	-696.3244018554688	-215.3824157714844	674.8424072265625	-716.4068603515625	-383.4808044433594	1574.140747070312	-576.1337280273438	-523.9603881835938	1578.131469726562	-424.5798034667969	-519.956298828125	1571.966430664062	-555.0308227539062	-373.4470520019531	1589.548828125	-399.8014831542969	-317.0017395019531	808.6412963867188	-205.3001556396484	-324.1966857910156	796.8704223632812	-610.553466796875	-420.9048156738281	848.1776733398438	-541.555419921875	-422.3446350097656	833.7010498046875	-284.51904296875	-217.8825531005859	401.2917785644531	-233.9260864257812	-287.7539978027344	543.6187133789062	-218.9781494140625	44.13529205322266	64.91322326660156	-197.5021362304688	-139.5286865234375	265.44775390625	-211.8218994140625	-158.8076324462891	37.05572128295898	-326.1607360839844	-81.38617706298828	48.80731201171875	-328.6384582519531	-104.774787902832	39.77875900268555	-216.5872802734375	99.79833221435547	84.12238311767578	-250.0131378173828	-520.3079833984375	454.8287048339844	-583.689697265625	-411.6663513183594	685.888671875	-621.1602172851562	-621.0591430664062	45.07008361816406	-603.72509765625	-580.7125854492188	325.0183410644531	-596.0250244140625	-826.2135009765625	57.88824081420898	-532.4185180664062	-760.8006591796875	46.22170257568359	-501.3542785644531	-756.1900024414062	46.79236602783203	-608.8938598632812	-550.4182739257812	38.75448989868164	-566.627685546875	
460	4.59	-198.6360168457031	894.5615844726562	-476.5848083496094	-202.8957061767578	907.4695434570312	-334.1220397949219	-220.6028289794922	1000.151306152344	-416.3577270507812	-503.9681701660156	1175.789184570312	-463.4957580566406	-217.0726013183594	1124.0732421875	-417.3661804199219	-290.2604370117188	1386.892333984375	-463.2362060546875	-471.8542175292969	1290.21484375	-470.7585144042969	-208.2679595947266	1257.744384765625	-530.1200561523438	-272.6499938964844	1351.213256835938	-353.0573120117188	-389.9811096191406	1369.385375976562	-294.5061645507812	-399.4896240234375	1252.982788085938	-190.3969116210938	-442.8424682617188	1035.329467773438	-167.8831481933594	-348.8204650878906	1012.023315429688	-205.0352020263672	-547.339111328125	877.9749145507812	-276.27978515625	-524.572509765625	838.3793334960938	-217.5753479003906	-484.141845703125	955.361328125	-184.1206207275391	-604.8710327148438	733.8226928710938	-299.3763732910156	-555.5598754882812	771.4253540039062	-234.8839111328125	-592.0782470703125	806.490478515625	-286.6366577148438	-327.4447937011719	1331.559204101562	-627.737060546875	-288.4241943359375	1265.515258789062	-688.5513305664062	-236.1032562255859	984.0420532226562	-719.72021484375	-196.5490264892578	977.4963989257812	-664.5565185546875	-317.8800964355469	770.2754516601562	-689.697998046875	-229.1991577148438	762.1876220703125	-725.2498779296875	-226.8632049560547	925.8318481445312	-725.6072387695312	-248.2867126464844	592.0892944335938	-676.4776611328125	-324.0032653808594	682.4000854492188	-699.3373413085938	-226.2133178710938	675.6055908203125	-720.4801635742188	-394.1025695800781	1575.036865234375	-580.8883666992188	-534.5313720703125	1579.62841796875	-429.2244262695312	-530.5699462890625	1573.05810546875	-559.6858520507812	-383.9481506347656	1590.984252929688	-404.6156311035156	-326.9159851074219	808.6614379882812	-208.5956268310547	-331.1239929199219	799.7794189453125	-613.20703125	-428.3834533691406	851.2719116210938	-545.4443359375	-431.7198486328125	833.9813232421875	-288.6441955566406	-226.2451171875	401.8948669433594	-235.8809051513672	-296.9122924804688	543.962158203125	-222.0597991943359	41.64513778686523	69.86238861083984	-196.6296081542969	-145.6371612548828	267.5296936035156	-212.4348907470703	-158.9470367431641	36.96573638916016	-326.2465515136719	-82.42283630371094	49.55676651000977	-328.3523559570312	-105.8267974853516	39.81110382080078	-216.7157440185547	96.79850006103516	91.13339996337891	-248.925537109375	-530.2316284179688	458.1179809570312	-584.4129028320312	-419.9275512695312	689.0263061523438	-623.5775146484375	-621.4232788085938	45.72623443603516	-603.1522827148438	-587.9109497070312	326.5116271972656	-596.1663208007812	-827.3385620117188	54.49234771728516	-531.020263671875	-761.2321166992188	44.07190704345703	-500.3726196289062	-756.7483520507812	46.22080993652344	-608.3001098632812	-550.64794921875	39.45688629150391	-566.5137329101562	
